HIERARCHY
ROOT joint_Root
{
	OFFSET 0.0 0.0 0.0
	CHANNELS 6 Xposition Yposition Zposition Zrotation Xrotation Yrotation 
	JOINT Hips
	{
		OFFSET -0.726466 93.3139 -2.00062
		CHANNELS 6 Xposition Yposition Zposition Zrotation Xrotation Yrotation 
		JOINT Spine
		{
			OFFSET 15.7357 0.0 0.0
			CHANNELS 6 Xposition Yposition Zposition Zrotation Xrotation Yrotation 
			JOINT Chest
			{
				OFFSET 8.98455 -0.406207 0.0
				CHANNELS 6 Xposition Yposition Zposition Zrotation Xrotation Yrotation 
				JOINT Neck
				{
					OFFSET 16.3773 0.0 0.0
					CHANNELS 6 Xposition Yposition Zposition Zrotation Xrotation Yrotation 
					JOINT Head
					{
						OFFSET 6.45672 0.0 0.0
						CHANNELS 6 Xposition Yposition Zposition Zrotation Xrotation Yrotation 
						End Site
						{
							OFFSET 0.0 0.0 0.0
						}
					}
				}
				JOINT Shoulder_L
				{
					OFFSET 12.9942 -0.242716 4.98039
					CHANNELS 6 Xposition Yposition Zposition Zrotation Xrotation Yrotation 
					JOINT UpperArm_L
					{
						OFFSET 5.34809 0.0 0.0
						CHANNELS 6 Xposition Yposition Zposition Zrotation Xrotation Yrotation 
						JOINT LowerArm_L
						{
							OFFSET 24.3286 1.87007e-05 0.0
							CHANNELS 6 Xposition Yposition Zposition Zrotation Xrotation Yrotation 
							JOINT Hand_L
							{
								OFFSET 22.2916 0.0 0.0
								CHANNELS 6 Xposition Yposition Zposition Zrotation Xrotation Yrotation 
								End Site
								{
									OFFSET 0.0 0.0 0.0
								}
							}
						}
					}
				}
				JOINT Shoulder_R
				{
					OFFSET 12.9945 -0.242716 -4.98039
					CHANNELS 6 Xposition Yposition Zposition Zrotation Xrotation Yrotation 
					JOINT UpperArm_R
					{
						OFFSET -5.34813 0.0 0.0
						CHANNELS 6 Xposition Yposition Zposition Zrotation Xrotation Yrotation 
						JOINT LowerArm_R
						{
							OFFSET -24.3289 0.000322201 0.0
							CHANNELS 6 Xposition Yposition Zposition Zrotation Xrotation Yrotation 
							JOINT Hand_R
							{
								OFFSET -22.2915 -0.000108084 0.0
								CHANNELS 6 Xposition Yposition Zposition Zrotation Xrotation Yrotation 
								End Site
								{
									OFFSET 0.0 0.0 0.0
								}
							}
						}
					}
				}
			}
		}
		JOINT UpperLeg_L
		{
			OFFSET -2.19248 -6.46944 0.0
			CHANNELS 6 Xposition Yposition Zposition Zrotation Xrotation Yrotation 
			JOINT LowerLeg_L
			{
				OFFSET 39.0811 0.0 -1.23785e-05
				CHANNELS 6 Xposition Yposition Zposition Zrotation Xrotation Yrotation 
				JOINT Foot_L
				{
					OFFSET 40.9854 0.0 -1.26872e-05
					CHANNELS 6 Xposition Yposition Zposition Zrotation Xrotation Yrotation 
					JOINT Toes_L
					{
						OFFSET 11.7543 0.0 0.0
						CHANNELS 6 Xposition Yposition Zposition Zrotation Xrotation Yrotation 
						End Site
						{
							OFFSET 0.0 0.0 0.0
						}
					}
				}
			}
		}
		JOINT UpperLeg_R
		{
			OFFSET -2.19251 6.46944 0.0
			CHANNELS 6 Xposition Yposition Zposition Zrotation Xrotation Yrotation 
			JOINT LowerLeg_R
			{
				OFFSET -39.0811 -0.00228153 -0.0401928
				CHANNELS 6 Xposition Yposition Zposition Zrotation Xrotation Yrotation 
				JOINT Foot_R
				{
					OFFSET -40.9854 0.0 0.0
					CHANNELS 6 Xposition Yposition Zposition Zrotation Xrotation Yrotation 
					JOINT Toes_R
					{
						OFFSET -11.7543 0.0 0.0
						CHANNELS 6 Xposition Yposition Zposition Zrotation Xrotation Yrotation 
						End Site
						{
							OFFSET 0.0 0.0 0.0
						}
					}
				}
			}
		}
	}
}
MOTION
Frames:	8
Frame Time:	0.0333333
0.000000 0.000000 0.000000 0.000000 0.000000 -0.000000 0.193038 89.598600 -538.055000 86.076500 -7.524780 1.422630 15.735700 0.000005 -0.000001 94.876500 80.863300 -94.641400 8.984550 -0.406207 -0.000000 10.440800 1.548300 0.328529 16.377300 -0.000001 -0.000001 5.694990 -0.302293 0.421243 6.456720 -0.000001 -0.000000 1.988320 -0.811589 -1.938220 12.994200 -0.242716 4.980390 -89.059700 -2.354550 -68.221900 5.348090 -0.000007 -0.000001 -73.119700 24.525300 -3.961610 24.328600 0.000019 0.000005 2.185600 4.361270 -26.666600 22.291600 -0.000001 0.000005 9.341060 5.477900 -5.641380 12.994500 -0.242716 -4.980390 88.752500 3.584610 -70.797500 -5.348130 -0.000001 -0.000004 -65.800200 29.895200 -17.332500 -24.328900 0.000322 -0.000009 5.952000 11.767100 -27.087600 -22.291500 -0.000108 -0.000004 7.399310 5.502250 -6.624600 -2.192480 -6.469440 -0.000000 -175.967000 -12.403700 -5.576680 39.081100 -0.000007 -0.000012 -0.362436 0.523398 34.702200 40.985400 -0.000006 -0.000013 -1.547200 -8.331250 -77.646800 11.754300 -0.000000 0.000003 -0.643974 -0.800149 -16.076900 -2.192510 6.469440 -0.000001 176.049000 16.064500 163.799000 -39.081100 -0.002282 -0.040193 0.180434 -0.094075 62.042700 -40.985400 0.000008 0.000006 -1.297490 -5.384250 -58.617500 -11.754300 -0.000006 -0.000006 -0.015922 -0.143545 -22.431200
0.000000 0.000000 0.000000 0.000000 0.000000 -0.000000 0.092576 89.996800 -536.405000 85.417600 -5.039990 1.475400 15.735700 0.000005 -0.000001 90.025100 80.778600 -89.427600 8.984550 -0.406207 -0.000000 10.676900 0.023185 1.192190 16.377300 -0.000001 -0.000001 5.975050 -0.907151 0.178535 6.456720 -0.000001 -0.000000 2.055100 -0.416006 -1.429980 12.994200 -0.242716 4.980390 -89.018200 -2.586380 -69.203100 5.348090 -0.000007 -0.000001 -68.406300 27.581600 -10.023400 24.328600 0.000019 0.000005 2.116370 2.969710 -35.514800 22.291600 -0.000001 0.000005 11.093800 5.516360 -7.206460 12.994500 -0.242716 -4.980390 88.799200 3.313140 -70.064900 -5.348130 -0.000001 -0.000004 -68.576300 26.676100 -11.736100 -24.328900 0.000322 -0.000009 5.358320 12.854800 -22.864600 -22.291500 -0.000108 -0.000004 7.394350 5.511970 -7.024380 -2.192480 -6.469440 -0.000000 -175.039000 -10.532300 -3.181200 39.081100 -0.000007 -0.000012 -0.348431 0.561624 31.816200 40.985400 -0.000006 -0.000013 -1.912730 -7.608140 -77.182000 11.754300 -0.000000 0.000003 -0.391762 -0.489833 -16.277800 -2.192510 6.469440 -0.000001 178.210000 17.290500 160.078000 -39.081100 -0.002282 -0.040193 0.163928 -0.088513 61.159300 -40.985400 0.000008 0.000006 -2.253230 -3.932030 -59.795900 -11.754300 -0.000006 -0.000006 -0.016624 -0.147816 -22.606700
0.000000 0.000000 0.000000 0.000000 0.000000 -0.000000 -0.039552 90.309400 -534.830000 84.886100 -2.617830 1.324060 15.735700 0.000005 -0.000001 85.412700 80.685000 -84.470800 8.984550 -0.406207 -0.000000 10.819500 -1.454160 2.020590 16.377300 -0.000001 -0.000001 6.270340 -1.455380 -0.059416 6.456720 -0.000001 -0.000000 2.090400 -0.071106 -1.101730 12.994200 -0.242716 4.980390 -88.844300 -3.218510 -70.234300 5.348090 -0.000007 -0.000001 -63.643800 27.750400 -16.209500 24.328600 0.000019 0.000005 1.866670 1.996650 -43.115100 22.291600 -0.000001 0.000005 10.764200 5.538950 -8.196490 12.994500 -0.242716 -4.980390 88.883800 2.930040 -69.134300 -5.348130 -0.000001 -0.000004 -69.977800 23.334500 -6.555350 -24.328900 0.000322 -0.000009 4.739240 12.439200 -21.054500 -22.291500 -0.000108 -0.000004 7.200940 5.525040 -7.579610 -2.192480 -6.469440 -0.000000 -174.206000 -9.265560 -1.201490 39.081100 -0.000007 -0.000012 -0.280409 0.503319 29.123500 40.985400 -0.000006 -0.000013 -1.587310 -6.647340 -76.686900 11.754300 -0.000000 0.000003 -0.523855 -0.669421 -16.178900 -2.192510 6.469440 -0.000001 -179.470000 19.135100 156.520000 -39.081100 -0.002282 -0.040193 0.134196 -0.083427 57.505400 -40.985400 0.000008 0.000006 -1.618810 -5.778910 -60.764400 -11.754300 -0.000006 -0.000006 -0.018399 -0.158254 -23.035900
0.000000 0.000000 0.000000 0.000000 0.000000 -0.000000 -0.170206 90.448700 -533.244000 84.513400 -0.572432 1.263780 15.735700 0.000005 -0.000001 81.603800 80.442000 -80.375900 8.984550 -0.406207 -0.000000 11.185000 -2.733280 2.722830 16.377300 -0.000001 -0.000001 6.456100 -1.919400 -0.307104 6.456720 -0.000001 -0.000000 1.950080 0.346719 -0.824784 12.994200 -0.242716 4.980390 -88.663600 -3.929480 -71.198600 5.348090 -0.000007 -0.000001 -58.775600 26.348400 -22.323500 24.328600 0.000019 0.000005 1.009130 0.868980 -49.305700 22.291600 -0.000001 0.000005 10.414900 5.553840 -8.888480 12.994500 -0.242716 -4.980390 88.969200 2.576480 -68.185600 -5.348130 -0.000001 -0.000004 -70.136900 20.928000 -2.221220 -24.328900 0.000322 -0.000009 4.146300 10.978700 -20.844700 -22.291500 -0.000108 -0.000004 7.413500 5.534130 -7.977710 -2.192480 -6.469440 -0.000000 -173.472000 -8.255760 0.709736 39.081100 -0.000007 -0.000012 -0.240318 0.474153 26.878000 40.985400 -0.000006 -0.000013 -1.053360 -5.609200 -76.494000 11.754300 -0.000000 0.000003 -0.693231 -0.861106 -16.038200 -2.192510 6.469440 -0.000001 -177.301000 20.532000 153.566000 -39.081100 -0.002282 -0.040193 0.098839 -0.075876 51.561000 -40.985400 0.000008 0.000006 -1.284300 -7.880330 -60.694800 -11.754300 -0.000006 -0.000006 -0.018281 -0.157577 -23.008000
0.000000 0.000000 0.000000 0.000000 0.000000 -0.000000 -0.295680 90.326700 -531.568000 84.351800 1.090380 1.163530 15.735700 0.000005 -0.000001 78.771900 80.103500 -77.319700 8.984550 -0.406207 -0.000000 11.716500 -3.771980 3.291460 16.377300 -0.000001 -0.000001 6.411810 -2.187420 -0.358323 6.456720 -0.000001 -0.000000 1.665870 0.717023 -0.752646 12.994200 -0.242716 4.980390 -88.531600 -4.464490 -71.771800 5.348090 -0.000007 -0.000001 -53.544100 24.211800 -28.495300 24.328600 0.000019 0.000005 0.252476 0.185660 -53.777800 22.291600 -0.000001 0.000005 11.261300 5.568970 -9.627680 12.994500 -0.242716 -4.980390 89.090200 2.176250 -67.304300 -5.348130 -0.000001 -0.000004 -69.527300 19.625100 1.233790 -24.328900 0.000322 -0.000009 3.944470 10.024700 -21.614900 -22.291500 -0.000108 -0.000004 7.437230 5.543130 -8.386660 -2.192480 -6.469440 -0.000000 -172.960000 -7.218160 2.208480 39.081100 -0.000007 -0.000012 -0.242984 0.508420 25.544500 40.985400 -0.000006 -0.000013 -1.254050 -4.953860 -76.893000 11.754300 -0.000000 0.000003 -0.773877 -0.969689 -15.974100 -2.192510 6.469440 -0.000001 -175.446000 21.390100 151.162000 -39.081100 -0.002282 -0.040193 0.065797 -0.064317 44.192900 -40.985400 0.000008 0.000006 -1.232640 -8.815470 -59.562400 -11.754300 -0.000006 -0.000006 -0.017192 -0.151204 -22.745900
0.000000 0.000000 0.000000 0.000000 0.000000 -0.000000 -0.445678 89.993800 -529.753000 84.416900 2.211540 0.863737 15.735700 0.000005 -0.000001 76.881400 79.794300 -75.262700 8.984550 -0.406207 -0.000000 12.207000 -4.528710 3.722670 16.377300 -0.000001 -0.000001 6.367560 -2.427700 -0.324015 6.456720 -0.000001 -0.000000 1.271080 1.081090 -0.837773 12.994200 -0.242716 4.980390 -88.473000 -4.795080 -72.312400 5.348090 -0.000007 -0.000001 -48.674000 21.258900 -33.629300 24.328600 0.000019 0.000005 0.323497 0.208982 -57.103800 22.291600 -0.000001 0.000005 12.457700 5.571260 -9.750450 12.994500 -0.242716 -4.980390 89.243700 1.745860 -66.573600 -5.348130 -0.000001 -0.000004 -68.553200 19.000400 3.857830 -24.328900 0.000322 -0.000009 4.003710 9.641020 -22.686800 -22.291500 -0.000108 -0.000004 7.274480 5.549050 -8.661390 -2.192480 -6.469440 -0.000000 -172.649000 -6.466460 3.473440 39.081100 -0.000007 -0.000012 -0.266950 0.579584 24.730800 40.985400 -0.000006 -0.000013 -1.802230 -4.516670 -77.735500 11.754300 -0.000000 0.000003 -0.639689 -0.801127 -16.080800 -2.192510 6.469440 -0.000001 -173.920000 21.633400 149.151000 -39.081100 -0.002282 -0.040193 0.040150 -0.050653 36.044300 -40.985400 0.000008 0.000006 -1.210460 -7.755910 -57.052200 -11.754300 -0.000006 -0.000006 -0.017278 -0.151714 -22.766900
0.000000 0.000000 0.000000 0.000000 0.000000 -0.000000 -0.609277 89.463100 -527.706000 84.737200 2.877660 0.371991 15.735700 0.000005 -0.000001 75.633700 79.543400 -73.949500 8.984550 -0.406207 -0.000000 12.606600 -5.068930 3.930210 16.377300 -0.000001 -0.000001 6.283430 -2.349780 -0.123685 6.456720 -0.000001 -0.000000 0.813367 1.280370 -0.935267 12.994200 -0.242716 4.980390 -88.347800 -5.247160 -72.494100 5.348090 -0.000007 -0.000001 -44.606800 18.059400 -37.802500 24.328600 0.000019 0.000005 0.755789 0.453930 -59.015000 22.291600 -0.000001 0.000005 13.051100 5.575840 -9.990890 12.994500 -0.242716 -4.980390 89.384700 1.383880 -66.025600 -5.348130 -0.000001 -0.000004 -67.426300 18.399700 5.757300 -24.328900 0.000322 -0.000009 3.937640 9.056310 -23.625600 -22.291500 -0.000108 -0.000004 6.816290 5.554920 -8.940390 -2.192480 -6.469440 -0.000000 -172.458000 -6.458130 4.735470 39.081100 -0.000007 -0.000012 -0.287933 0.642487 24.140300 40.985400 -0.000006 -0.000013 -2.442780 -3.604730 -78.898600 11.754300 -0.000000 0.000003 -0.408565 -0.513819 -16.266200 -2.192510 6.469440 -0.000001 -172.872000 21.382200 147.476000 -39.081100 -0.002282 -0.040193 0.021492 -0.034165 28.026500 -40.985400 0.000008 0.000006 -2.265900 -5.244510 -54.629400 -11.754300 -0.000006 -0.000006 -0.019126 -0.162399 -23.206500
0.000000 0.000000 0.000000 0.000000 0.000000 -0.000000 -0.840110 88.740400 -525.331000 85.154500 3.485270 -0.305923 15.735700 0.000005 -0.000001 73.796400 79.385400 -72.013900 8.984550 -0.406207 -0.000000 12.760700 -5.789340 4.215300 16.377300 -0.000001 -0.000001 6.419180 -2.379370 -0.353741 6.456720 -0.000001 -0.000000 0.376365 1.890430 -0.958008 12.994200 -0.242716 4.980390 -88.274100 -5.569950 -72.753000 5.348090 -0.000007 -0.000001 -41.123400 15.096700 -39.930400 24.328600 0.000019 0.000005 0.807468 0.458862 -60.395200 22.291600 -0.000001 0.000005 13.244400 5.583630 -10.409600 12.994500 -0.242716 -4.980390 89.640000 0.797239 -65.694400 -5.348130 -0.000001 -0.000004 -66.444700 17.605600 6.852330 -24.328900 0.000322 -0.000009 4.139130 9.229340 -24.290500 -22.291500 -0.000108 -0.000004 6.405050 5.550930 -8.749570 -2.192480 -6.469440 -0.000000 -172.140000 -6.978260 6.056830 39.081100 -0.000007 -0.000012 -0.297933 0.679514 23.675700 40.985400 -0.000006 -0.000013 -2.762840 -2.305310 -80.340700 11.754300 -0.000000 0.000003 -0.385734 -0.485892 -16.285100 -2.192510 6.469440 -0.000001 -171.799000 21.492200 145.839000 -39.081100 -0.002282 -0.040193 0.009357 -0.015362 21.457300 -40.985400 0.000008 0.000006 -3.695710 -2.752790 -53.840300 -11.754300 -0.000006 -0.000006 -0.018164 -0.156897 -22.980100
